<svg width="20" height="20" viewBox="0 0 20 20" fill="none" xmlns="http://www.w3.org/2000/svg">
<path d="M2.5 12.9167L4.16667 12.9167" stroke="white" stroke-linecap="round" stroke-linejoin="round"/>
<path d="M2.5 9.99963L4.16652 9.99991" stroke="white" stroke-linecap="round" stroke-linejoin="round"/>
<path d="M2.50049 7.08334L4.16686 7.08338" stroke="white" stroke-linecap="round" stroke-linejoin="round"/>
<path d="M17.5002 7.08338L15.8335 7.08334" stroke="white" stroke-linecap="round" stroke-linejoin="round"/>
<path d="M17.5 10.0004L15.8335 10.0001" stroke="white" stroke-linecap="round" stroke-linejoin="round"/>
<path d="M17.4999 12.9167L15.8335 12.9167" stroke="white" stroke-linecap="round" stroke-linejoin="round"/>
<path d="M7.08319 2.5L7.08315 4.16667" stroke="white" stroke-linecap="round" stroke-linejoin="round"/>
<path d="M10.0008 2.50015L10.0005 4.16667" stroke="white" stroke-linecap="round" stroke-linejoin="round"/>
<path d="M12.9167 2.50031L12.9166 4.16667" stroke="white" stroke-linecap="round" stroke-linejoin="round"/>
<path d="M12.9166 17.5L12.9167 15.8333" stroke="white" stroke-linecap="round" stroke-linejoin="round"/>
<path d="M9.99953 17.4998L9.99982 15.8333" stroke="white" stroke-linecap="round" stroke-linejoin="round"/>
<path d="M7.08315 17.4997L7.08319 15.8333" stroke="white" stroke-linecap="round" stroke-linejoin="round"/>
<path fill-rule="evenodd" clip-rule="evenodd" d="M12.4998 15.8333H7.49984C5.65889 15.8333 4.1665 14.341 4.1665 12.5V7.5C4.1665 5.65905 5.65889 4.16667 7.49984 4.16667H12.4998C14.3408 4.16667 15.8332 5.65905 15.8332 7.5V12.5C15.8332 14.341 14.3408 15.8333 12.4998 15.8333Z" stroke="white" stroke-linecap="round" stroke-linejoin="round"/>
<path d="M7.27637 11.15H10.23" stroke="white" stroke-linecap="round" stroke-linejoin="round"/>
<path d="M10.4832 11.9167L9.24154 8.08333H8.27487L7.0332 11.9167" stroke="white" stroke-linecap="round" stroke-linejoin="round"/>
<path d="M12.5915 11.9167V8.08333" stroke="white" stroke-linecap="round" stroke-linejoin="round"/>
</svg>
