<svg width="20" height="20" viewBox="0 0 20 20" fill="none" xmlns="http://www.w3.org/2000/svg">
<path d="M3.3335 14.1225V15.8333C3.3335 16.7541 4.07933 17.5 5.00016 17.5H15.0002C15.921 17.5 16.6668 16.7541 16.6668 15.8333V8.95331" stroke="white" stroke-linecap="round" stroke-linejoin="round"/>
<path d="M3.3335 11.2058V4.16667C3.3335 3.24583 4.07933 2.5 5.00016 2.5H15.0002C15.921 2.5 16.6668 3.24583 16.6668 4.16667V6.03667" stroke="white" stroke-linecap="round" stroke-linejoin="round"/>
<path d="M4.35965 11.633C4.92916 12.2025 4.92916 13.1259 4.35965 13.6954C3.79013 14.2649 2.86676 14.2649 2.29725 13.6954C1.72774 13.1259 1.72774 12.2025 2.29725 11.633C2.86677 11.0635 3.79014 11.0635 4.35965 11.633" stroke="white" stroke-linecap="round" stroke-linejoin="round"/>
<path fill-rule="evenodd" clip-rule="evenodd" d="M10.791 12.4975C10.791 11.6925 11.4435 11.0392 12.2493 11.0392C13.0552 11.0392 13.7077 11.6917 13.7077 12.4975C13.7077 13.3034 13.0552 13.9559 12.2493 13.9559C11.4468 13.9592 10.7943 13.3117 10.791 12.5092C10.791 12.505 10.791 12.5017 10.791 12.4975Z" stroke="white" stroke-linecap="round" stroke-linejoin="round"/>
<path d="M8.85476 6.46379C9.42428 7.0333 9.42428 7.95667 8.85476 8.52618C8.28525 9.09569 7.36188 9.09569 6.79237 8.52618C6.22286 7.95666 6.22286 7.0333 6.79237 6.46379C7.36189 5.89427 8.28525 5.89427 8.85476 6.46379" stroke="white" stroke-linecap="round" stroke-linejoin="round"/>
<path d="M17.7029 6.46379C18.2724 7.0333 18.2724 7.95667 17.7029 8.52618C17.1334 9.09569 16.21 9.09569 15.6405 8.52618C15.071 7.95666 15.071 7.0333 15.6405 6.46379C16.21 5.89427 17.1334 5.89427 17.7029 6.46379" stroke="white" stroke-linecap="round" stroke-linejoin="round"/>
<path d="M15.6584 8.54166L13.2417 11.4333" stroke="white" stroke-linecap="round" stroke-linejoin="round"/>
<path d="M4.31689 11.5917L6.83356 8.55832" stroke="white" stroke-linecap="round" stroke-linejoin="round"/>
<path d="M11.2586 11.4333L8.81689 8.55832" stroke="white" stroke-linecap="round" stroke-linejoin="round"/>
</svg>
