<svg width="20" height="20" viewBox="0 0 20 20" fill="none" xmlns="http://www.w3.org/2000/svg">
<path fill-rule="evenodd" clip-rule="evenodd" d="M3.33435 14.1719H5.00171C5.92257 14.1719 6.66908 14.9184 6.66908 15.8392V16.6729C6.66908 17.1333 6.29582 17.5066 5.83539 17.5066H2.50067C2.04024 17.5066 1.66699 17.1333 1.66699 16.6729V15.8392C1.66699 14.9184 2.4135 14.1719 3.33435 14.1719Z" stroke="white" stroke-linecap="round" stroke-linejoin="round"/>
<path fill-rule="evenodd" clip-rule="evenodd" d="M15.0062 14.1719H16.6736C17.5944 14.1719 18.341 14.9184 18.341 15.8392V16.6729C18.341 17.1333 17.9677 17.5066 17.5073 17.5066H14.1725C13.7121 17.5066 13.3389 17.1333 13.3389 16.6729V15.8392C13.3389 14.9184 14.0854 14.1719 15.0062 14.1719Z" stroke="white" stroke-linecap="round" stroke-linejoin="round"/>
<path fill-rule="evenodd" clip-rule="evenodd" d="M12.505 8.16529L12.5032 6.66383C12.5015 5.28477 11.3831 4.16771 10.004 4.16771V4.16771C8.62506 4.16771 7.50667 5.28465 7.50488 6.66363L7.50293 8.1654C7.50185 9.00215 7.91959 9.78393 8.61581 10.2481L9.07957 10.5572C9.63937 10.9304 10.3687 10.9304 10.9285 10.5572L11.3918 10.2484C12.0882 9.78412 12.506 9.00221 12.505 8.16529Z" stroke="white" stroke-linecap="round" stroke-linejoin="round"/>
<path d="M8.33643 13.3382H11.6711" stroke="white" stroke-linecap="round" stroke-linejoin="round"/>
<path d="M19.1745 17.5066H0.833496" stroke="white" stroke-linecap="round" stroke-linejoin="round"/>
<path d="M14.1078 10.1317L14.8296 8.68816C14.9454 8.45664 15.0056 8.20135 15.0056 7.9425V6.19182C15.0056 3.69265 12.9796 1.66666 10.4805 1.66666H9.52662C7.02745 1.66666 5.00146 3.69265 5.00146 6.19182V7.9425C5.00146 8.20135 5.06173 8.45664 5.1775 8.68816L5.89927 10.1317" stroke="white" stroke-linecap="round" stroke-linejoin="round"/>
<path d="M12.3369 9.06903L15.0542 10.6994C16.0587 11.3021 16.6732 12.3876 16.6732 13.5589V14.1719" stroke="white" stroke-linecap="round" stroke-linejoin="round"/>
<path d="M7.6703 9.06903L4.95299 10.6994C3.94856 11.3021 3.33398 12.3875 3.33398 13.5589V14.1719" stroke="white" stroke-linecap="round" stroke-linejoin="round"/>
</svg>
