<svg width="20" height="20" viewBox="0 0 20 20" fill="none" xmlns="http://www.w3.org/2000/svg">
<path fill-rule="evenodd" clip-rule="evenodd" d="M3.20801 3.75V3.75C3.20801 4.58 3.30967 5.4075 3.51134 6.2125L3.77301 7.26C3.94384 7.94333 3.81884 8.66666 3.42801 9.25333L2.64634 10.4258C1.45301 12.2158 1.34134 14.5175 2.35717 16.4142L2.71467 17.0825C3.12717 17.8525 3.92967 18.3333 4.80301 18.3333H6.03967C6.96134 18.3333 7.79884 17.7992 8.18717 16.9633L8.49384 16.3033C9.35134 14.4592 9.18551 12.3008 8.05801 10.6092L7.15467 9.25333C6.76384 8.6675 6.63884 7.94333 6.80967 7.26L7.12634 5.995C7.29134 5.33416 7.37551 4.655 7.37551 3.97416V3.75C7.37551 2.59916 6.44301 1.66666 5.29217 1.66666V1.66666C4.14051 1.66666 3.20801 2.59916 3.20801 3.75Z" stroke="white" stroke-linecap="round" stroke-linejoin="round"/>
<path d="M3.80518 8.33332H6.78851" stroke="white" stroke-linecap="round" stroke-linejoin="round"/>
<path d="M15.1289 10.5764C15.2464 10.6939 15.2464 10.8844 15.1289 11.0018C15.0114 11.1193 14.8209 11.1193 14.7035 11.0018C14.586 10.8844 14.586 10.6939 14.7035 10.5764C14.8209 10.4589 15.0114 10.4589 15.1289 10.5764" stroke="white" stroke-linecap="round" stroke-linejoin="round"/>
<path d="M12.1509 11.0014C12.2684 11.1189 12.2684 11.3094 12.1509 11.4269C12.0334 11.5443 11.8429 11.5443 11.7254 11.4269C11.6079 11.3094 11.6079 11.1189 11.7254 11.0014C11.8429 10.8839 12.0334 10.8839 12.1509 11.0014" stroke="white" stroke-linecap="round" stroke-linejoin="round"/>
<path d="M14.7041 13.5547C14.8216 13.6722 14.8216 13.8627 14.7041 13.9802C14.5866 14.0977 14.3961 14.0977 14.2787 13.9802C14.1612 13.8627 14.1612 13.6722 14.2787 13.5547C14.3961 13.4373 14.5866 13.4373 14.7041 13.5547" stroke="white" stroke-linecap="round" stroke-linejoin="round"/>
<path d="M7.9624 10.465C8.85824 8.70666 10.6799 7.49999 12.7882 7.49999C15.7799 7.49999 18.2049 9.92499 18.2049 12.9167C18.2049 15.9083 15.7799 18.3333 12.7882 18.3333C11.0516 18.3333 9.5099 17.5125 8.51824 16.2417" stroke="white" stroke-linecap="round" stroke-linejoin="round"/>
</svg>
